<svg id="Layer_1" data-name="Layer 1" xmlns="http://www.w3.org/2000/svg" viewBox="0 0 250 75">
  <defs>
    <style>
      .cls-1 {
        fill: #002b5c;
      }

      .cls-2 {
        fill: #c2a204;
      }

      .cls-3 {
        fill: #0081c6;
      }
    </style>
  </defs>
  <title>Altana-WEALTH-logo</title>
  <g>
    <g>
      <path class="cls-1" d="M112.26,59a.4.4,0,0,0,0-.15c0-.12-.18-.19-.43-.2v-.11h1.64v.11a.76.76,0,0,0-.33.11.57.57,0,0,0-.2.33c-.43,1.26-.84,2.51-1.25,3.76s-.8,2.51-1.17,3.76H110l-2-6-1.94,6h-.52l-2.37-7.34a1,1,0,0,0-.25-.47.59.59,0,0,0-.37-.15v-.11h2v.11a.93.93,0,0,0-.36.06.14.14,0,0,0-.07.14.51.51,0,0,0,0,.2L106,64.91l1.64-5.11-.37-.85a.49.49,0,0,0-.2-.24.74.74,0,0,0-.35-.07v-.11h2.18v.11a.82.82,0,0,0-.42.09.18.18,0,0,0-.09.16.51.51,0,0,0,0,.17l1.94,5.9,1.83-5.66A1.17,1.17,0,0,0,112.26,59Z"/>
      <path class="cls-1" d="M123,66.52V66.4h.16c.16,0,.26,0,.31-.13a.81.81,0,0,0,.08-.45v-6.6a.81.81,0,0,0-.08-.45c0-.09-.15-.13-.31-.13H123v-.11h5.26v1.21h-.16c-.05-.31-.15-.5-.31-.57a1.84,1.84,0,0,0-.6-.08h-2.39c-.14,0-.22,0-.23,0a.51.51,0,0,0,0,.22v2.71H127a1,1,0,0,0,.6-.12.77.77,0,0,0,.17-.47h.15v1.78h-.15q0-.18-.06-.3a.5.5,0,0,0-.11-.19.61.61,0,0,0-.23-.1,1.9,1.9,0,0,0-.37,0h-2.4v3.08c0,.11,0,.18.12.2a2.25,2.25,0,0,0,.46,0h2a3.48,3.48,0,0,0,.49,0,1.07,1.07,0,0,0,.37-.12,1.22,1.22,0,0,0,.3-.26,1.69,1.69,0,0,0,.24-.43h.19l-.29,1.41Z"/>
      <path class="cls-1" d="M145.93,66.52h-2V66.4a.6.6,0,0,0,.4-.1.2.2,0,0,0,.05-.14.44.44,0,0,0-.05-.26l-.73-1.79H140l-.66,1.65a1.07,1.07,0,0,0-.1.37.21.21,0,0,0,.05.15.55.55,0,0,0,.4.12v.12H138V66.4a.74.74,0,0,0,.45-.22,1.61,1.61,0,0,0,.32-.48l3-7.26h.53L145.42,66a.73.73,0,0,0,.25.3,1,1,0,0,0,.26.09Zm-4.1-6.84-1.56,3.85h3.12Z"/>
      <path class="cls-1" d="M157.07,65.72c0,.11,0,.18.11.2a2.37,2.37,0,0,0,.47,0h1.72a2.82,2.82,0,0,0,1-.14,1.41,1.41,0,0,0,.62-.76l.15,0-.33,1.43H155.5V66.4h.16c.17,0,.28,0,.33-.13a.94.94,0,0,0,.07-.45v-6.6a.94.94,0,0,0-.07-.45c-.05-.09-.16-.13-.33-.13h-.16v-.11h2.17v.11h-.18c-.17,0-.29,0-.34.13a.81.81,0,0,0-.08.45Z"/>
      <path class="cls-1" d="M172.15,66.27c0,.09.18.13.37.13h.18v.12h-2.27V66.4h.19c.18,0,.31,0,.36-.13a.81.81,0,0,0,.08-.45V59.13h-1.55a1.37,1.37,0,0,0-.58.1c-.16.07-.28.3-.36.71h-.16l.05-1.41h6.2l0,1.41h-.15c-.09-.41-.21-.64-.36-.71a1.36,1.36,0,0,0-.59-.1h-1.53v6.69A.81.81,0,0,0,172.15,66.27Z"/>
      <path class="cls-1" d="M184.74,58.77c-.06-.09-.17-.13-.35-.13h-.17v-.11h2.16v.11h-.16c-.17,0-.28,0-.33.13a.94.94,0,0,0-.07.45v2.91h3.85V59.22a.94.94,0,0,0-.07-.45c0-.09-.17-.13-.35-.13h-.17v-.11h2.18v.11h-.17a.37.37,0,0,0-.34.13.94.94,0,0,0-.07.45v6.6a.94.94,0,0,0,.07.45.37.37,0,0,0,.34.13h.17v.12h-2.18V66.4h.17c.18,0,.3,0,.35-.13a.94.94,0,0,0,.07-.45V62.73h-3.85v3.09a.94.94,0,0,0,.07.45c.05.09.16.13.33.13h.16v.12h-2.16V66.4h.17c.18,0,.29,0,.35-.13a.94.94,0,0,0,.07-.45v-6.6A.94.94,0,0,0,184.74,58.77Z"/>
    </g>
    <polygon class="cls-2" points="43.58 61.21 91.44 60.83 91.44 63.57 43.58 61.21"/>
    <polygon class="cls-2" points="250 61.97 202.14 61.59 202.14 64.33 250 61.97"/>
    <path class="cls-1" d="M229.41,26.53l11,2.86-6.18-13.15Zm5.19-16.34L248,38.63h-3.17l-4.43-9.36H228.18l-4.47,9.36h-3.07L233.9,10.19Zm-51,28.44V10.19h.62L203.11,32V10.19h2.81V38.63h-.64L186.51,17.1V38.63Zm-34-12.1,10.91,2.78-6.07-13.07Zm5.18-16.34,13.43,28.44H165l-4.43-9.36H148.31l-4.47,9.36h-3.06L154,10.19Zm-44,2.79V10.19h23.49V13H123.69V38.63h-2.9V13ZM87.06,10.19H89.9V35.88H104v2.75h-17ZM53.8,26.53l11.1,2.69-2.74-5.57-3.51-7.41ZM59,10.19,72.42,38.63H69.24l-4.42-9.36H52.57l-4.48,9.36H45L58.29,10.19Z"/>
    <polygon class="cls-1" points="0.03 8.4 0.03 38.84 13.95 8.4 0.03 8.4"/>
    <polygon class="cls-2" points="0 27.75 15.22 23.69 0 19.06 0 27.75"/>
    <polygon class="cls-1" points="30.38 8.4 30.38 38.84 16.47 8.4 30.38 8.4"/>
    <polygon class="cls-3" points="15.22 23.76 15.22 23.69 15.21 23.73 15.19 23.69 15.19 23.76 9.07 38.84 15.19 38.84 15.22 38.84 21.34 38.84 15.22 23.76"/>
    <polygon class="cls-2" points="30.41 27.75 15.19 23.69 30.41 19.06 30.41 27.75"/>
  </g>
</svg>
