<?xml version="1.0" encoding="utf-8"?>
<!-- Generator: Adobe Illustrator 18.0.0, SVG Export Plug-In . SVG Version: 6.00 Build 0)  -->
<!DOCTYPE svg PUBLIC "-//W3C//DTD SVG 1.1//EN" "http://www.w3.org/Graphics/SVG/1.1/DTD/svg11.dtd">
<svg version="1.1" id="Layer_1" xmlns="http://www.w3.org/2000/svg" xmlns:xlink="http://www.w3.org/1999/xlink" x="0px" y="0px"
	 viewBox="0 0 841.9 595.3" enable-background="new 0 0 841.9 595.3" xml:space="preserve">
<polygon fill="#7ACDF3" points="232.8,448.7 218.2,461 129.3,461.1 114.4,448.7 114.5,174.3 232.7,174.5 "/>
<polygon fill="#0C82C5" points="129.2,461.1 114.3,448.6 114.4,174.3 129.3,174.3 "/>
<polygon fill="#0C82C5" points="218.1,460.9 232.8,448.6 232.7,174.3 218.3,174.2 "/>
<polygon fill="#10498D" points="232.7,174.1 218.2,160.7 129.3,160.8 114.4,174.2 114.4,263.7 232.8,263.6 "/>
<polygon fill="#152862" points="129.2,161 114.4,174.3 114.7,263.5 129.2,263.5 "/>
<polygon fill="#C2A42F" points="114.4,245.1 114.4,282.2 173.6,263.7 "/>
<polygon fill="#8E7A1E" points="114.4,245.1 114.4,282.2 129.2,277.7 129.2,249.6 "/>
<polygon fill="#C2A42F" points="232.8,282.3 232.8,245.2 173.6,263.7 "/>
<polygon fill="#152862" points="218.3,160.9 232.7,174.1 232.6,246.7 218.2,251.4 "/>
<polygon fill="#8E7A1E" points="232.7,245.2 232.6,282.2 218.2,277.7 218.2,249.8 "/>
<polygon fill="#61B5E5" points="114.3,448.6 107.2,455.4 123.4,470.2 129.2,461.1 "/>
<polygon fill="#7ACDF3" points="223.8,483.5 123.2,483.1 123.2,470.1 223.9,470.1 "/>
<polygon fill="#0C82C5" points="107.2,455.4 107.7,466.5 123.4,483.5 123.4,470.2 "/>
<polygon fill="#C1E8FB" points="218.1,460.9 223.9,470.5 123.4,470.2 129.2,461.1 "/>
<polygon fill="#61B5E5" points="233,448.6 240.1,455.4 223.9,470.2 218,461.1 "/>
<polygon fill="#0C82C5" points="240.1,455.3 239.5,466.5 223.9,483.5 223.9,470.2 "/>
<polygon fill="#00003C" points="114.3,174.9 107.2,168 123.4,153.2 129.2,162.3 "/>
<polygon fill="#14589A" points="223.8,139.9 123.2,140.3 123.2,153.3 223.9,153.3 "/>
<polygon fill="#143472" points="107.2,168.1 107.7,156.9 123.4,140 123.4,153.2 "/>
<polygon fill="#143472" points="218.1,162.5 223.9,153 123.4,153.2 129.2,162.3 "/>
<polygon fill="#00003C" points="232.7,174.9 239.8,168.1 223.6,153.3 217.7,162.4 "/>
<polygon fill="#143472" points="239.8,168.1 239.2,157 223.6,140 223.6,153.3 "/>
<polygon fill="#7ACDF3" points="400.9,449 386.3,461.3 297.5,461.4 282.6,449 282.6,174.6 400.8,174.7 "/>
<polygon fill="#10498D" points="400.8,174.4 386.3,161 297.5,161.1 282.5,174.5 282.6,264 400.9,263.9 "/>
<polygon fill="#0C82C5" points="297.4,461.4 282.4,448.9 282.5,174.6 297.5,174.6 "/>
<polygon fill="#152862" points="297.4,161.2 282.5,174.6 282.8,263.7 297.4,263.7 "/>
<polygon fill="#C2A42F" points="282.5,245.4 282.5,282.5 341.8,263.9 "/>
<polygon fill="#8E7A1E" points="282.5,245.4 282.5,282.5 297.4,278 297.4,249.9 "/>
<polygon fill="#C2A42F" points="400.9,282.5 400.9,245.5 341.8,263.9 "/>
<polygon fill="#0C82C5" points="386.2,461.2 400.9,448.8 400.8,174.6 386.4,174.4 "/>
<polygon fill="#152862" points="386.4,161.2 400.8,174.4 400.7,247 386.3,251.7 "/>
<polygon fill="#8E7A1E" points="400.8,245.4 400.7,282.3 386.3,277.9 386.3,250 "/>
<polygon fill="#61B5E5" points="282.4,448.9 275.3,455.7 291.5,470.5 297.4,461.4 "/>
<polygon fill="#7ACDF3" points="391.9,483.7 291.3,483.4 291.3,470.3 392,470.3 "/>
<polygon fill="#0C82C5" points="275.3,455.6 275.9,466.8 291.5,483.8 291.5,470.5 "/>
<polygon fill="#C1E8FB" points="386.2,461.2 392,470.7 291.5,470.5 297.4,461.4 "/>
<polygon fill="#61B5E5" points="401.1,448.8 408.2,455.7 392,470.5 386.2,461.4 "/>
<polygon fill="#0C82C5" points="408.2,455.6 407.7,466.8 392,483.7 392,470.5 "/>
<polygon fill="#00003C" points="282.4,175.1 275.3,168.3 291.5,153.5 297.4,162.6 "/>
<polygon fill="#14589A" points="391.9,140.3 291.3,140.6 291.3,153.7 392,153.7 "/>
<polygon fill="#143472" points="275.3,168.4 275.9,157.2 291.5,140.2 291.5,153.5 "/>
<polygon fill="#143472" points="386.2,162.8 392,153.3 291.5,153.5 297.4,162.6 "/>
<polygon fill="#00003C" points="401.1,175.2 408.2,168.3 392,153.6 386.2,162.6 "/>
<polygon fill="#143472" points="408.2,168.4 407.7,157.2 392,140.3 392,153.6 "/>
<polygon fill="#7ACDF3" points="569,448.8 554.5,461.1 465.6,461.2 450.7,448.8 450.7,174.4 568.9,174.5 "/>
<polygon fill="#10498D" points="568.9,174.2 554.5,160.8 465.6,160.9 450.6,174.3 450.7,263.8 569,263.7 "/>
<polygon fill="#0C82C5" points="465.5,461.2 450.5,448.6 450.6,174.4 465.6,174.4 "/>
<polygon fill="#152862" points="465.5,161 450.6,174.4 450.9,263.5 465.5,263.5 "/>
<polygon fill="#C2A42F" points="450.6,245.1 450.6,282.3 509.9,263.7 "/>
<polygon fill="#8E7A1E" points="450.6,245.1 450.6,282.3 465.5,277.8 465.5,249.6 "/>
<polygon fill="#C2A42F" points="569,282.3 569,245.2 509.9,263.7 "/>
<polygon fill="#0C82C5" points="554.3,461 569,448.6 568.9,174.4 554.5,174.2 "/>
<polygon fill="#152862" points="554.5,161 568.9,174.2 568.9,246.8 554.4,251.5 "/>
<polygon fill="#8E7A1E" points="568.9,245.2 568.9,282 554.4,277.7 554.4,249.8 "/>
<polygon fill="#61B5E5" points="450.5,448.6 443.4,455.5 459.6,470.3 465.5,461.2 "/>
<polygon fill="#7ACDF3" points="560,483.5 459.4,483.1 459.4,470.1 560.1,470.1 "/>
<polygon fill="#0C82C5" points="443.4,455.4 444,466.6 459.6,483.6 459.6,470.3 "/>
<polygon fill="#C1E8FB" points="554.3,461 560.1,470.5 459.6,470.3 465.5,461.2 "/>
<polygon fill="#61B5E5" points="569.2,448.6 576.3,455.5 560.1,470.2 554.3,461.1 "/>
<polygon fill="#0C82C5" points="576.3,455.4 575.8,466.5 560.2,483.5 560.1,470.2 "/>
<polygon fill="#00003C" points="450.5,174.9 443.4,168.1 459.6,153.3 465.5,162.4 "/>
<polygon fill="#14589A" points="560,140.1 459.4,140.4 459.4,153.4 560.1,153.4 "/>
<polygon fill="#143472" points="443.4,168.1 444,157 459.6,140 459.6,153.3 "/>
<polygon fill="#143472" points="554.3,162.6 560.1,153 459.6,153.3 465.5,162.4 "/>
<polygon fill="#00003C" points="569.2,175 576.3,168.1 560.1,153.3 554.3,162.4 "/>
<polygon fill="#143472" points="576.3,168.2 575.8,157 560.2,140 560.1,153.3 "/>
<polygon fill="#7ACDF3" points="737.1,448.8 722.5,461.1 633.7,461.2 618.7,448.8 618.8,174.4 737,174.5 "/>
<polygon fill="#10498D" points="737,174.2 722.5,160.8 633.7,160.9 618.7,174.3 618.7,263.8 737.1,263.7 "/>
<polygon fill="#0C82C5" points="633.6,461.2 618.6,448.6 618.7,174.4 633.7,174.4 "/>
<polygon fill="#152862" points="633.6,161 618.7,174.4 619,263.5 633.6,263.5 "/>
<polygon fill="#C2A42F" points="618.7,245.1 618.7,282.3 678,263.7 "/>
<polygon fill="#8E7A1E" points="618.7,245.1 618.7,282.3 633.6,277.8 633.6,249.6 "/>
<polygon fill="#C2A42F" points="737.1,282.3 737.1,245.2 678,263.7 "/>
<polygon fill="#0C82C5" points="722.4,461 737.1,448.6 737,174.4 722.6,174.2 "/>
<polygon fill="#152862" points="722.6,161 737,174.2 736.9,246.8 722.5,251.5 "/>
<polygon fill="#8E7A1E" points="737,245.2 736.9,282 722.5,277.7 722.5,249.8 "/>
<polygon fill="#61B5E5" points="618.6,448.6 611.5,455.5 627.7,470.3 633.6,461.2 "/>
<polygon fill="#7ACDF3" points="728.1,483.5 627.5,483.1 627.5,470.1 728.2,470.1 "/>
<polygon fill="#0C82C5" points="611.5,455.4 612,466.6 627.7,483.6 627.7,470.3 "/>
<polygon fill="#C1E8FB" points="722.4,461 728.2,470.5 627.7,470.3 633.6,461.2 "/>
<polygon fill="#61B5E5" points="737.3,448.6 744.4,455.5 728.2,470.2 722.4,461.1 "/>
<polygon fill="#0C82C5" points="744.4,455.4 743.9,466.5 728.2,483.5 728.2,470.2 "/>
<polygon fill="#00003C" points="618.6,174.9 611.5,168.1 627.7,153.3 633.6,162.4 "/>
<polygon fill="#14589A" points="728.1,140.1 627.5,140.4 627.5,153.4 728.2,153.4 "/>
<polygon fill="#143472" points="611.5,168.1 612,157 627.7,140 627.7,153.3 "/>
<polygon fill="#143472" points="722.4,162.6 728.2,153 627.7,153.3 633.6,162.4 "/>
<polygon fill="#00003C" points="737.3,175 744.4,168.1 728.2,153.3 722.4,162.4 "/>
<polygon fill="#143472" points="744.4,168.2 743.9,157 728.2,140 728.2,153.3 "/>
<text transform="matrix(1 0 0 1 143.3431 325.0817)"><tspan x="0" y="0" fill="#262262" font-family="'Arial-BoldMT'" font-size="7">INVESTORS ARE </tspan><tspan x="11.5" y="12" fill="#262262" font-family="'Arial-BoldMT'" font-size="7">ENTITLED </tspan><tspan x="-1.6" y="24" fill="#262262" font-family="'Arial-BoldMT'" font-size="7">TO THEIR MONEY </tspan><tspan x="-7.6" y="36" fill="#262262" font-family="'Arial-BoldMT'" font-size="7">BACK IN FULL WHEN </tspan><tspan x="7.8" y="48" fill="#262262" font-family="'Arial-BoldMT'" font-size="7">REQUESTED</tspan></text>
<rect x="114.7" y="191.1" fill="none" width="118.1" height="86.9"/>
<text transform="matrix(1 0 0 1 150.6995 197.5579)"><tspan x="0" y="0" fill="#FFFFFF" font-family="'Arial-BoldMT'" font-size="9">IT’S YOUR </tspan><tspan x="-10.4" y="14" fill="#FFFFFF" font-family="'Arial-BoldMT'" font-size="9">MONEY AFTER </tspan><tspan x="14.2" y="28" fill="#FFFFFF" font-family="'Arial-BoldMT'" font-size="9">ALL</tspan></text>
<text transform="matrix(1 0 0 1 312.1404 325.1681)"><tspan x="0" y="0" fill="#262262" font-family="'Arial-BoldMT'" font-size="7">OUR FUNDS ARE </tspan><tspan x="14.6" y="12" fill="#262262" font-family="'Arial-BoldMT'" font-size="7">CLOSED </tspan><tspan x="-6" y="24" fill="#262262" font-family="'Arial-BoldMT'" font-size="7">TO NEW INVESTORS </tspan><tspan x="-3.3" y="36" fill="#262262" font-family="'Arial-BoldMT'" font-size="7">WHEN OUR ALPHA </tspan><tspan x="-1.6" y="48" fill="#262262" font-family="'Arial-BoldMT'" font-size="7">LIMIT IS REACHED</tspan></text>
<rect x="282.5" y="191.1" fill="none" width="118.1" height="86.9"/>
<text transform="matrix(1 0 0 1 302.9371 197.5026)"><tspan x="0" y="0" fill="#FFFFFF" font-family="'Arial-BoldMT'" font-size="9">IN EVERY ALPHA</tspan><tspan x="0.3" y="14" fill="#FFFFFF" font-family="'Arial-BoldMT'" font-size="9">TRADE THERE IS </tspan><tspan x="1.5" y="28" fill="#FFFFFF" font-family="'Arial-BoldMT'" font-size="9">AN ALPHA LIMIT</tspan></text>
<text transform="matrix(1 0 0 1 490.4098 325.2132)"><tspan x="0" y="0" fill="#262262" font-family="'Arial-BoldMT'" font-size="7">WE OFFER </tspan><tspan x="-10.7" y="12" fill="#262262" font-family="'Arial-BoldMT'" font-size="7">TRANSPARENCY </tspan><tspan x="-19.8" y="24" fill="#262262" font-family="'Arial-BoldMT'" font-size="7">AND LIQUIDITY IN THE </tspan><tspan x="-17.3" y="36" fill="#262262" font-family="'Arial-BoldMT'" font-size="7">BEST INTERESTS OF </tspan><tspan x="-17.3" y="48" fill="#262262" font-family="'Arial-BoldMT'" font-size="7">ALL OUR INVESTORS</tspan></text>
<rect x="451" y="191" fill="none" width="118.1" height="86.9"/>
<text transform="matrix(1 0 0 1 485.0996 197.4069)"><tspan x="0" y="0" fill="#FFFFFF" font-family="'Arial-BoldMT'" font-size="9">PRESERVE </tspan><tspan x="-6.2" y="14" fill="#FFFFFF" font-family="'Arial-BoldMT'" font-size="9">CAPITAL AND </tspan><tspan x="-2.2" y="28" fill="#FFFFFF" font-family="'Arial-BoldMT'" font-size="9">COMPOUND</tspan></text>
<line fill="none" x1="620.2" y1="217" x2="738.3" y2="217"/>
<rect x="617.7" y="190.9" fill="none" width="118.1" height="86.9"/>
<text transform="matrix(1 0 0 1 639.45 197.3655)"><tspan x="0" y="0" fill="#FFFFFF" font-family="'Arial-BoldMT'" font-size="9">OUR INTERESTS </tspan><tspan x="16.7" y="14" fill="#FFFFFF" font-family="'Arial-BoldMT'" font-size="9">MUST BE </tspan><tspan x="16.7" y="28" fill="#FFFFFF" font-family="'Arial-BoldMT'" font-size="9">ALIGNED</tspan></text>
<text transform="matrix(1 0 0 1 194.0309 531.3579)" fill="#C2A42F" font-family="'Arial-BoldMT'" font-size="20.7502"> Altana are co-investors and solution providers</text>
<text transform="matrix(1 0 0 1 133.3929 105.2434)" fill="#C2A42F" font-family="'Arial-BoldMT'" font-size="20.7502"> Altana’s four pillar philosophy for investment management</text>
<text transform="matrix(1 0 0 1 653.1282 324.8268)"><tspan x="0" y="0" fill="#262262" font-family="'Arial-BoldMT'" font-size="7">WE INVEST A </tspan><tspan x="-11.9" y="12" fill="#262262" font-family="'Arial-BoldMT'" font-size="7">SIZEABLE AMOUNT, </tspan><tspan x="-10.7" y="24" fill="#262262" font-family="'Arial-BoldMT'" font-size="7">SIDE-BY-SIDE WITH </tspan><tspan x="3.5" y="36" fill="#262262" font-family="'Arial-BoldMT'" font-size="7">INVESTORS</tspan></text>
</svg>
