<svg width="128" height="128" viewBox="0 0 128 128" fill="none" xmlns="http://www.w3.org/2000/svg">
<g clip-path="url(#clip0)">
<rect width="128" height="128" fill="white"/>
<path d="M9.74243 21.639L37.1773 124.027" stroke="#356AE6" stroke-width="2"/>
<path d="M109.112 64.0747C108.916 64.0791 108.699 64.0849 108.462 64.0925C107.21 64.1328 105.402 64.2246 103.17 64.4306C98.708 64.8423 92.5398 65.7112 85.7114 67.5408C77.8675 69.6426 71.4113 72.407 67.3337 74.3805C65.466 75.2845 63.1888 74.2825 62.6749 72.3646L48.9668 21.2052C49.1656 21.0832 49.4148 20.9339 49.7147 20.7605C50.6301 20.2312 52.0179 19.4774 53.8874 18.5935C57.6261 16.8259 63.2919 14.5374 70.9587 12.4831C78.6254 10.4288 84.6764 9.57774 88.7981 9.23923C90.859 9.06997 92.4378 9.02883 93.4952 9.02953C93.8416 9.02976 94.1321 9.03448 94.3653 9.04066L109.112 64.0747Z" fill="#E3EBFC" stroke="#356AE6" stroke-width="2"/>
<path d="M61.687 72.5421L59.558 64.5966L73.1703 57.4426L73.9471 60.3418C74.4072 62.0589 74.0822 63.8916 73.0597 65.3458L66.4274 74.7785L61.687 72.5421Z" fill="#356AE6"/>
<path d="M24.6843 77.403L9.9363 22.3626C10.1592 22.2318 10.443 22.0691 10.788 21.8783C11.7872 21.3255 13.2997 20.5375 15.3334 19.6089C19.4008 17.7517 25.5537 15.3318 33.8559 13.1072C45.1326 10.0856 53.1557 9.35873 57.1137 9.20171C58.3364 9.1532 59.4181 9.98223 59.7558 11.2426L72.9307 60.412C73.4381 62.3059 72.0083 64.281 69.9745 64.4481C65.1369 64.8457 57.3885 65.8124 48.6085 68.165C41.2332 70.1412 34.9779 72.6002 30.5652 74.5654C28.3581 75.5483 26.61 76.4086 25.4111 77.0246C25.1405 77.1636 24.8979 77.2902 24.6843 77.403Z" fill="white" stroke="#356AE6" stroke-width="2"/>
<path d="M27.7718 69.6071C29.9419 68.1054 36.9749 65.0706 47.0556 62.3694C57.1364 59.6683 64.7445 58.78 67.3747 58.9955" stroke="#C1D1F7" stroke-width="2"/>
<path d="M16.1248 26.1404C18.2949 24.6387 25.3279 21.6039 35.4087 18.9028C45.4894 16.2016 53.0975 15.3134 55.7278 15.5288" stroke="#C1D1F7" stroke-width="2"/>
<path d="M38.17 30.8295C38.2947 29.9582 39.4029 29.6612 39.9465 30.3535L43.9419 35.4416C44.1684 35.7301 44.5347 35.8714 44.8962 35.8098L51.2466 34.7288C52.1095 34.5819 52.7314 35.5363 52.2484 36.2664L48.6748 41.6687C48.4739 41.9723 48.454 42.3612 48.6227 42.6838L51.6323 48.4387C52.0393 49.2171 51.3171 50.1045 50.4723 49.8639L44.2815 48.1012C43.9272 48.0004 43.5461 48.1025 43.2896 48.367L38.8096 52.9889C38.1983 53.6196 37.1291 53.2123 37.0924 52.3347L36.8214 45.846C36.8062 45.4822 36.5945 45.1554 36.2687 44.9929L30.4727 42.1011C29.6894 41.7103 29.7507 40.5729 30.5715 40.2687L36.6116 38.0297C36.9555 37.9022 37.202 37.5967 37.254 37.2337L38.17 30.8295Z" fill="#356AE6"/>
</g>
<defs>
<clipPath id="clip0">
<rect width="128" height="128" fill="white"/>
</clipPath>
</defs>
</svg>
