<svg width="128" height="128" viewBox="0 0 128 128" fill="none" xmlns="http://www.w3.org/2000/svg">
<g clip-path="url(#clip0)">
<rect width="128" height="128" fill="white"/>
<path opacity="0.5" fill-rule="evenodd" clip-rule="evenodd" d="M39.098 88.9975C52.7209 92.3304 67.7035 88.6762 78.3449 78.0348C88.9863 67.3934 92.6406 52.4108 89.3076 38.7878C96.4323 40.5309 103.185 44.1851 108.751 49.7505C124.957 65.9573 124.957 92.2336 108.751 108.44C92.5438 124.647 66.2674 124.647 50.0607 108.44C44.4953 102.875 40.8411 96.1222 39.098 88.9975ZM39.098 88.9975C31.9732 87.2544 25.2204 83.6002 19.6551 78.0348C3.44831 61.828 3.44831 35.5517 19.6551 19.3449C35.8618 3.13817 62.1382 3.13817 78.3449 19.3449C83.9103 24.9103 87.5645 31.6631 89.3076 38.7878C75.6847 35.4549 60.702 39.1091 50.0607 49.7505C39.4193 60.3919 35.765 75.3745 39.098 88.9975Z" fill="#E3EBFC"/>
<path d="M50.4141 50.8112C50.8991 50.3262 51.3932 49.8559 51.8957 49.4004L50.5526 47.9186C50.0258 48.396 49.5081 48.8888 48.9999 49.3969L50.4141 50.8112ZM55.8879 46.2094C57.0118 45.4207 58.1663 44.6949 59.3465 44.0322L58.3673 42.2883C57.129 42.9836 55.9178 43.745 54.739 44.5724L55.8879 46.2094ZM63.9471 41.8166C65.2146 41.3015 66.5027 40.8524 67.8062 40.4693L67.2422 38.5504C65.875 38.9522 64.5238 39.4234 63.1941 39.9638L63.9471 41.8166ZM72.7882 39.3369C74.1353 39.1178 75.4914 38.966 76.8509 38.8817L76.7271 36.8855C75.3016 36.974 73.8797 37.1331 72.4671 37.3628L72.7882 39.3369ZM81.9601 38.8817C83.3196 38.9661 84.6757 39.1178 86.0229 39.3369L86.344 37.3629C84.9313 37.1331 83.5094 36.974 82.084 36.8855L81.9601 38.8817ZM91.0049 40.4693C92.3083 40.8524 93.5964 41.3015 94.8639 41.8166L95.617 39.9638C94.2872 39.4234 92.936 38.9523 91.5688 38.5504L91.0049 40.4693ZM99.4645 44.0322C100.645 44.6949 101.799 45.4207 102.923 46.2094L104.072 44.5724C102.893 43.745 101.682 42.9836 100.444 42.2883L99.4645 44.0322ZM106.915 49.4004C107.418 49.856 107.912 50.3262 108.397 50.8112L109.811 49.397C109.303 48.8888 108.785 48.396 108.258 47.9186L106.915 49.4004Z" fill="#C1D1F7"/>
<path d="M77.2843 77.6813C76.8056 78.1599 76.3176 78.6235 75.8208 79.0722L77.1613 80.5565C77.6832 80.0851 78.1958 79.5981 78.6985 79.0955L77.2843 77.6813ZM71.868 82.2054C70.7545 82.9766 69.6093 83.6838 68.4374 84.327L69.3998 86.0803C70.6319 85.4039 71.836 84.6604 73.0067 83.8497L71.868 82.2054ZM63.8711 86.462C62.6145 86.9536 61.3365 87.3787 60.0425 87.7375L60.5768 89.6648C61.9361 89.2879 63.279 88.8412 64.5997 88.3246L63.8711 86.462ZM55.1057 88.7748C53.7733 88.968 52.4315 89.0942 51.0856 89.1535L51.1737 91.1516C52.5858 91.0894 53.994 90.9569 55.3927 90.7541L55.1057 88.7748ZM46.0393 89.0628C44.6995 88.9556 43.3625 88.7823 42.0336 88.5429L41.679 90.5112C43.0725 90.7623 44.4747 90.944 45.8799 91.0564L46.0393 89.0628ZM37.1287 87.3447C35.8476 86.9472 34.5809 86.4856 33.3336 85.96L32.5569 87.8031C33.8646 88.3541 35.1927 88.8381 36.5359 89.2549L37.1287 87.3447ZM28.8099 83.7194C27.6498 83.0538 26.514 82.3275 25.4072 81.5406L24.2483 83.1707C25.4081 83.9952 26.5985 84.7564 27.8146 85.4541L28.8099 83.7194ZM21.4723 78.3703C20.9762 77.919 20.4881 77.4536 20.0086 76.9741L18.5944 78.3883C19.0962 78.8902 19.6072 79.3773 20.1266 79.8498L21.4723 78.3703Z" fill="#C1D1F7"/>
<path d="M77.3449 78.0348C77.3449 78.5871 77.7926 79.0348 78.3449 79.0348H87.3449C87.8972 79.0348 88.3449 78.5871 88.3449 78.0348C88.3449 77.4825 87.8972 77.0348 87.3449 77.0348L79.3449 77.0348L79.3449 69.0348C79.3449 68.4825 78.8972 68.0348 78.3449 68.0348C77.7926 68.0348 77.3449 68.4825 77.3449 69.0348V78.0348ZM20.3622 77.3277C4.54594 61.5115 4.54594 35.8683 20.3622 20.052L18.948 18.6378C2.35068 35.2351 2.35068 62.1446 18.948 78.7419L20.3622 77.3277ZM20.3622 20.052C36.1784 4.23581 61.8216 4.23581 77.6378 20.052L79.052 18.6378C62.4548 2.04054 35.5452 2.04054 18.948 18.6378L20.3622 20.052ZM77.6378 20.052C93.4541 35.8683 93.4541 61.5115 77.6378 77.3277L79.052 78.7419C95.6493 62.1446 95.6493 35.2351 79.052 18.6378L77.6378 20.052Z" fill="#356AE6"/>
<path d="M51.0606 49.7505C51.0606 49.1982 50.6129 48.7505 50.0606 48.7505H41.0606C40.5083 48.7505 40.0606 49.1982 40.0606 49.7505C40.0606 50.3028 40.5083 50.7505 41.0606 50.7505L49.0606 50.7505L49.0606 58.7505C49.0606 59.3028 49.5083 59.7505 50.0606 59.7505C50.6129 59.7505 51.0606 59.3028 51.0606 58.7505V49.7505ZM108.043 50.4576C123.86 66.2739 123.86 91.917 108.043 107.733L109.458 109.147C126.055 92.5502 126.055 65.6407 109.458 49.0434L108.043 50.4576ZM108.043 107.733C92.2271 123.55 66.5839 123.55 50.7677 107.733L49.3535 109.147C65.9508 125.745 92.8603 125.745 109.458 109.147L108.043 107.733ZM50.7677 107.733C34.9515 91.917 34.9515 66.2739 50.7677 50.4576L49.3535 49.0434C32.7562 65.6407 32.7562 92.5502 49.3535 109.147L50.7677 107.733Z" fill="#356AE6"/>
</g>
<defs>
<clipPath id="clip0">
<rect width="128" height="128" fill="white"/>
</clipPath>
</defs>
</svg>
