<svg width="128" height="128" viewBox="0 0 128 128" fill="none" xmlns="http://www.w3.org/2000/svg">
<rect width="128" height="128" fill="white"/>
<path d="M53.6229 29.4721C54.1069 39.6369 46.1606 51.0521 42.127 55.4892L60.2784 103.288C74.7996 103.288 89.3207 97.8427 103.237 90.5821C114.37 84.7736 110.619 75.2542 107.352 71.2205C113.523 67.5784 115.58 63.7179 114.128 55.4892C113.418 51.4669 108.578 49.3364 105.052 50.2954C108.311 46.9903 111.578 42.5847 111.102 38.5361C109.892 28.2385 101.895 30.0116 97.1863 31.2874C90.5308 33.0907 78.2282 37.1362 71.1693 39.758C71.7743 37.1361 72.6214 29.9561 71.1693 22.2115C69.3541 12.5307 56.6481 7.69036 53.6229 10.1106C50.5976 12.5307 53.0178 16.7661 53.6229 29.4721Z" fill="#E3EBFC"/>
<path d="M71.1693 39.758C71.7743 37.1361 72.6214 29.9561 71.1693 22.2115C69.3541 12.5307 56.6481 7.69036 53.6229 10.1106C50.5976 12.5307 53.0178 16.7661 53.6229 29.4721C54.1069 39.6369 46.1606 51.0521 42.127 55.4892L60.2784 103.288C74.7996 103.288 89.3207 97.8427 103.237 90.5821C114.37 84.7736 110.619 75.2542 107.352 71.2205M71.1693 39.758C78.2282 37.1362 90.5308 33.0907 97.1863 31.2874C101.895 30.0116 109.892 28.2385 111.102 38.5361C111.578 42.5847 108.311 46.9903 105.052 50.2954M71.1693 39.758L64 42.5M96.5 55.4892C96.5 55.4892 101 53.5 105.052 50.2954M99.0015 76.0609L107.352 71.2205M107.352 71.2205C113.523 67.5784 115.58 63.7179 114.128 55.4892C113.418 51.4669 108.578 49.3364 105.052 50.2954" stroke="#356AE6" stroke-width="2" stroke-linecap="round"/>
<path d="M14.98 61.8707C14.6016 60.833 15.1362 59.685 16.1739 59.3066L39.7014 50.7289C40.7391 50.3506 41.8871 50.8851 42.2654 51.9229L62.4088 107.173C62.7871 108.211 62.2526 109.359 61.2148 109.737L49.4511 114.026L37.6874 118.315C36.6496 118.693 35.5017 118.159 35.1233 117.121L14.98 61.8707Z" fill="white"/>
<path d="M49.4511 114.026L61.2148 109.737C62.2526 109.359 62.7871 108.211 62.4088 107.173L42.2654 51.9229C41.8871 50.8851 40.7391 50.3506 39.7014 50.7289L16.1739 59.3066C15.1362 59.685 14.6016 60.833 14.98 61.8707L35.1233 117.121C35.5017 118.159 36.6496 118.693 37.6874 118.315L49.4511 114.026ZM49.4511 114.026L41.5804 92.3854" stroke="#356AE6" stroke-width="2" stroke-linecap="round"/>
<circle cx="32.5962" cy="68.9269" r="4.95164" fill="#C1D1F7" stroke="#356AE6" stroke-width="2" stroke-linecap="round"/>
</svg>
